<?xml version="1.0" encoding="UTF-8"?>
<svg version="1.1" xmlns="http://www.w3.org/2000/svg" width="146" height="123">
<path d="M0 0 C48.18 0 96.36 0 146 0 C146 40.59 146 81.18 146 123 C97.82 123 49.64 123 0 123 C0 82.41 0 41.82 0 0 Z " fill="#F2F2F2" transform="translate(0,0)"/>
<path d="M0 0 C48.18 0 96.36 0 146 0 C146 40.59 146 81.18 146 123 C97.82 123 49.64 123 0 123 C0 82.41 0 41.82 0 0 Z M29 25 C17.34011063 38.79301642 13.63340587 52.69820043 14.68041992 70.45117188 C16.35196375 83.78265968 23.46383923 96.62831888 33.6796875 105.265625 C46.27996554 114.68965567 59.04969458 119.37602878 75 118 C88.589317 116.0333583 102.1886103 109.4713082 110.859375 98.6875 C121.60595526 83.99132187 124.62324297 69.95237648 123 52 C120.77797048 38.68618675 112.1259697 26.51162768 101.41015625 18.64453125 C100.61480469 18.10183594 99.81945312 17.55914062 99 17 C98.29746094 16.50886719 97.59492187 16.01773437 96.87109375 15.51171875 C89.64564788 10.7183212 82.63934608 8.45039245 74 8 C73.07058594 7.94714844 72.14117187 7.89429688 71.18359375 7.83984375 C54.67562191 7.34481982 40.70533652 13.4655443 29 25 Z " fill="#FDFDFD" transform="translate(0,0)"/>
<path d="M0 0 C0.804375 0.0309375 1.60875 0.061875 2.4375 0.09375 C14.67232591 0.94339069 27.90064009 9.019933 36 18 C44.6626058 29.53577522 49.28286697 40.02431968 49.4375 54.625 C49.44789307 55.49584229 49.45828613 56.36668457 49.46899414 57.26391602 C49.28246363 70.89865296 43.2930343 84.32905614 33.93359375 94.23046875 C21.77520899 105.35723299 7.65966216 110.55757003 -8.69921875 110.25 C-22.32899065 109.21768592 -34.1978497 103.43316592 -44 94 C-56.40060422 79.49281328 -60.17074169 65.23624103 -59.22949219 46.53808594 C-58.00755434 33.02397328 -49.66522055 20.64518519 -39.5625 12 C-27.56639274 2.902952 -15.02450449 -0.83469469 0 0 Z M8 5 C10.21652218 7.21652218 11.63479958 7.67494633 14.5625 8.6875 C22.10177475 11.61156025 28.35257532 16.33195589 33 23 C32.53851563 22.49210937 32.07703125 21.98421875 31.6015625 21.4609375 C23.2991724 12.6991266 13.22549615 6.14029317 0.87890625 5.6015625 C-0.89322901 5.59371541 -2.66550097 5.60166717 -4.4375 5.625 C-5.31470703 5.61339844 -6.19191406 5.60179687 -7.09570312 5.58984375 C-20.51125109 5.64916084 -30.93878165 11.11746731 -40.75 20.0625 C-50.90424628 30.70896288 -54.48783836 43.85346638 -54.24609375 58.1875 C-53.35187394 72.04081012 -47.8326554 83.18603682 -37.78515625 92.703125 C-24.44557437 103.7040705 -10.74752512 105.54712267 6 104 C14.04671286 102.4980683 20.96421743 98.40383097 27 93 C27.66515625 92.44957031 28.3303125 91.89914063 29.015625 91.33203125 C37.951159 83.33438727 43.4304741 71.28976589 44.24609375 59.41796875 C44.62091198 50.26375423 43.26422142 42.63904384 40 34 C39.505 32.515 39.505 32.515 39 31 C39.99 32.98 40.98 34.96 42 37 C42.78551075 35.26043234 42.78551075 35.26043234 43 33 C37.73265174 21.30501347 28.13720252 12.86674744 17 7 C16.30003906 6.61972656 15.60007812 6.23945313 14.87890625 5.84765625 C12.49990323 4.77438462 10.579247 4.8567085 8 5 Z " fill="#8B8B8B" transform="translate(74,8)"/>
<path d="M0 0 C0.804375 0.0309375 1.60875 0.061875 2.4375 0.09375 C14.67232591 0.94339069 27.90064009 9.019933 36 18 C44.6626058 29.53577522 49.28286697 40.02431968 49.4375 54.625 C49.44789307 55.49584229 49.45828613 56.36668457 49.46899414 57.26391602 C49.28246363 70.89865296 43.2930343 84.32905614 33.93359375 94.23046875 C21.77520899 105.35723299 7.65966216 110.55757003 -8.69921875 110.25 C-22.32899065 109.21768592 -34.1978497 103.43316592 -44 94 C-56.40060422 79.49281328 -60.17074169 65.23624103 -59.22949219 46.53808594 C-58.00755434 33.02397328 -49.66522055 20.64518519 -39.5625 12 C-27.56639274 2.902952 -15.02450449 -0.83469469 0 0 Z M-27 7 C-27.83273438 7.4125 -28.66546875 7.825 -29.5234375 8.25 C-39.85922283 13.84722529 -47.90986623 22.43797243 -53 33 C-53.61875 34.28390625 -53.61875 34.28390625 -54.25 35.59375 C-58.97129424 47.26583854 -59.03452274 62.65140882 -54.31640625 74.33984375 C-46.75203427 89.62571117 -35.98158552 100.31089396 -19.77734375 106.1640625 C-8.12144256 108.74354839 6.37393558 108.77307405 17 103 C17.83144531 102.5875 18.66289063 102.175 19.51953125 101.75 C31.36726845 95.34385024 40.30146618 84.98635693 44.8125 72.3125 C48.97092946 58.24722387 47.96638451 43.13862951 41.4921875 29.921875 C33.6240602 16.82052815 22.65628102 8.16610033 8 4 C7.01 3.67 6.02 3.34 5 3 C-5.88107074 2.08013336 -17.18308843 1.74680317 -27 7 Z " fill="#262626" transform="translate(74,8)"/>
<path d="M0 0 C3.79379058 1.49041773 5.68343758 3.69062512 8 7 C8 7.66 8 8.32 8 9 C8.66 9 9.32 9 10 9 C10 9.66 10 10.32 10 11 C10.66 11 11.32 11 12 11 C12.26554687 10.41734375 12.53109375 9.8346875 12.8046875 9.234375 C14.03302996 6.93825772 15.40314939 5.19643982 17.125 3.25 C17.66382812 2.63640625 18.20265625 2.0228125 18.7578125 1.390625 C19.16773437 0.93171875 19.57765625 0.4728125 20 0 C21.32 0.66 22.64 1.32 24 2 C22.63088196 5.1489715 21.1247864 7.0478487 18.5 9.25 C17.8915625 9.77078125 17.283125 10.2915625 16.65625 10.828125 C15 12 15 12 13 12 C13 12.99 13 13.98 13 15 C13.70125 15.226875 14.4025 15.45375 15.125 15.6875 C18.69343613 17.31656867 21.06514511 19.40640731 24 22 C23.34 23.32 22.68 24.64 22 26 C18.63408134 24.55746343 16.48952921 22.66735273 14 20 C14.28875 20.51949219 14.5775 21.03898437 14.875 21.57421875 C18.56239016 28.50087873 18.56239016 28.50087873 18 33 C15.17283905 33.94238698 13.36823877 34.13465647 10.4375 34.125 C9.65246094 34.12757812 8.86742188 34.13015625 8.05859375 34.1328125 C6 34 6 34 4 33 C4.53851968 27.72250715 5.77343836 23.74354436 8 19 C5.03 22.465 5.03 22.465 2 26 C0.68 25.34 -0.64 24.68 -2 24 C-0.79304978 20.37914935 0.46801781 19.6587148 3.5 17.4375 C6.7783147 15.168506 6.7783147 15.168506 9 12 C8.41734375 11.73445313 7.8346875 11.46890625 7.234375 11.1953125 C4.93825772 9.96697004 3.19643982 8.59685061 1.25 6.875 C0.63640625 6.33617187 0.0228125 5.79734375 -0.609375 5.2421875 C-1.06828125 4.83226562 -1.5271875 4.42234375 -2 4 C-1.34 2.68 -0.68 1.36 0 0 Z " fill="#2B2B2B" transform="translate(58,44)"/>
<path d="M0 0 C-1.56316942 3.12633884 -4.30416011 3.63580164 -7.4375 5.0625 C-20.39669691 11.28866022 -29.3739861 21.118918 -34.9375 34.375 C-39.08571715 46.95700963 -38.92711752 62.04054986 -33 74 C-25.75008841 87.7109727 -15.619089 96.82485421 -0.9453125 102.09765625 C1.35988272 102.79966329 3.6557521 103.44436562 6 104 C6 104.33 6 104.66 6 105 C-4.85758584 105.78964261 -13.47352583 100.36962937 -22 94 C-31.18430416 85.62328121 -39.06600673 72.45836005 -40.19287109 59.84033203 C-40.81929079 41.70453257 -38.03955932 28.24214537 -26 14 C-19.14944587 7.24945396 -10.14159302 -0.55545827 0 0 Z " fill="#242424" transform="translate(55,11)"/>
<path d="M0 0 C0 0.66 0 1.32 0 2 C0.60585937 2.13535156 1.21171875 2.27070313 1.8359375 2.41015625 C12.28081398 5.09368605 19.79971691 11.15598299 27 19 C26.67 19.66 26.34 20.32 26 21 C25.46632813 20.41992188 24.93265625 19.83984375 24.3828125 19.2421875 C15.74893819 10.19006323 5.74333714 3.16172905 -7.12109375 2.6015625 C-8.89322901 2.59371541 -10.66550097 2.60166717 -12.4375 2.625 C-13.31470703 2.61339844 -14.19191406 2.60179687 -15.09570312 2.58984375 C-28.35033074 2.64844933 -39.07729103 7.87938867 -48.4375 17.1875 C-49.63076194 18.45292465 -50.81840879 19.72367096 -52 21 C-52.67804687 21.62648438 -53.35609375 22.25296875 -54.0546875 22.8984375 C-56.25517639 25.27567249 -57.38644502 27.47831816 -58.6875 30.4375 C-59.10386719 31.36433594 -59.52023438 32.29117188 -59.94921875 33.24609375 C-62.18507903 39.10587627 -62.15236424 44.61450064 -62.125 50.8125 C-62.12886719 51.67681641 -62.13273437 52.54113281 -62.13671875 53.43164062 C-62.12874957 58.71121923 -61.76453257 63.77569407 -61 69 C-66.22106507 63.77893493 -65.49340298 55.85213869 -65.50415039 48.96557617 C-65.21008461 36.32990143 -60.71258142 25.24992124 -52 16 C-51.45601562 15.37867187 -50.91203125 14.75734375 -50.3515625 14.1171875 C-45.89011951 9.27872116 -40.82744266 6.00463983 -35 3 C-34.22527344 2.58363281 -33.45054688 2.16726562 -32.65234375 1.73828125 C-23.62644455 -2.33839272 -9.47937451 -3.1597915 0 0 Z " fill="#ADADAD" transform="translate(82,12)"/>
<path d="M0 0 C1.21236328 0.04447266 1.21236328 0.04447266 2.44921875 0.08984375 C14.68467775 0.96533034 27.89552266 9.01425911 36 18 C43.57993426 28.09400864 50.00382975 38.95021326 49 52 C45.94267869 48.5733955 45.22294972 45.37543577 44.25 40.9375 C41.08800916 27.98622441 33.328393 17.80280084 22.0625 10.6875 C17.5419862 8.12029463 12.98588735 6.41725632 8 5 C7.01 4.67 6.02 4.34 5 4 C3.42006785 3.90727892 1.83655537 3.86931615 0.25390625 3.8671875 C-0.66583984 3.86589844 -1.58558594 3.86460938 -2.53320312 3.86328125 C-3.49162109 3.86714844 -4.45003906 3.87101563 -5.4375 3.875 C-6.86932617 3.86919922 -6.86932617 3.86919922 -8.33007812 3.86328125 C-9.25111328 3.86457031 -10.17214844 3.86585937 -11.12109375 3.8671875 C-12.38070923 3.86887939 -12.38070923 3.86887939 -13.66577148 3.87060547 C-15.90758487 3.9948771 -17.84895454 4.37603261 -20 5 C-20.33 4.01 -20.66 3.02 -21 2 C-13.86161881 0.09643168 -7.37118368 -0.30589919 0 0 Z " fill="#282828" transform="translate(74,8)"/>
<path d="M0 0 C0.99 0 1.98 0 3 0 C2.85566132 1.35432679 2.70943339 2.70845225 2.5625 4.0625 C2.47355469 4.8875 2.38460937 5.7125 2.29296875 6.5625 C2.05152474 8.57131418 1.72462035 10.56966402 1.375 12.5625 C0.93174326 16.62568683 1.36392003 19.97149354 2 24 C0.68 24.33 -0.64 24.66 -2 25 C-5.50918652 20.42280019 -6.17916482 15.63942596 -6 10 C-5.26782614 7.10394925 -4.26335835 4.72885403 -3 2 C-2.01 2 -1.02 2 0 2 C0 1.34 0 0.68 0 0 Z " fill="#9D9D9D" transform="translate(50,49)"/>
<path d="M0 0 C3.0916909 2.52956528 3.90931332 5.22454612 5 9 C5.66 9 6.32 9 7 9 C10.82177951 20.3515951 11.21843323 31.41833882 8 43 C7.67 43.66 7.34 44.32 7 45 C6.34 45 5.68 45 5 45 C4.5978125 46.3921875 4.5978125 46.3921875 4.1875 47.8125 C3.05519579 50.85184289 2.30099489 51.90073617 0 54 C0.18175781 53.46632812 0.36351563 52.93265625 0.55078125 52.3828125 C1.08702244 50.79333863 1.61348416 49.20054865 2.1328125 47.60546875 C2.67672381 45.97128478 3.25058497 44.34644731 3.8671875 42.73828125 C8.30745131 30.28439847 6.51989434 18.10803811 2 6 C1.32777265 4.00186216 0.65953235 2.00236398 0 0 Z " fill="#858585" transform="translate(111,36)"/>
<path d="M0 0 C0.99 0 1.98 0 3 0 C3 0.66 3 1.32 3 2 C3.99 2 4.98 2 6 2 C8.08387097 6.41290323 8.08387097 6.41290323 7.6875 9.1875 C7 11 7 11 6 13 C6.66 13 7.32 13 8 13 C8 15.31 8 17.62 8 20 C6.35 20.33 4.7 20.66 3 21 C3.99 21.33 4.98 21.66 6 22 C5.67 22.99 5.34 23.98 5 25 C3.68 24.67 2.36 24.34 1 24 C1.20625 22.700625 1.4125 21.40125 1.625 20.0625 C2.12361983 15.71836009 1.57812771 12.28503552 0.48046875 8.0859375 C-0.14641791 5.36433199 -0.14252555 2.77924815 0 0 Z " fill="#959595" transform="translate(85,49)"/>
<path d="M0 0 C0.92748047 -0.00128906 1.85496094 -0.00257812 2.81054688 -0.00390625 C3.78185547 -0.00003906 4.75316406 0.00382813 5.75390625 0.0078125 C6.72134766 0.00394531 7.68878906 0.00007812 8.68554688 -0.00390625 C9.61431641 -0.00261719 10.54308594 -0.00132813 11.5 0 C12.77701782 0.00169189 12.77701782 0.00169189 14.07983398 0.00341797 C16.31640625 0.1328125 16.31640625 0.1328125 19.31640625 1.1328125 C19.31640625 1.7928125 19.31640625 2.4528125 19.31640625 3.1328125 C19.92226562 3.26816406 20.528125 3.40351563 21.15234375 3.54296875 C31.59722023 6.22649855 39.11612316 12.28879549 46.31640625 20.1328125 C45.98640625 20.7928125 45.65640625 21.4528125 45.31640625 22.1328125 C44.78273437 21.55273438 44.2490625 20.97265625 43.69921875 20.375 C35.63059401 11.91550762 26.18605635 4.79875564 14.15576172 3.89550781 C10.68355588 3.83875778 7.225701 3.87038168 3.75390625 3.9453125 C2.55443359 3.95884766 1.35496094 3.97238281 0.11914062 3.98632812 C-2.81558254 4.0214045 -5.74934257 4.07055823 -8.68359375 4.1328125 C-8.02359375 3.8028125 -7.36359375 3.4728125 -6.68359375 3.1328125 C-6.68359375 2.4728125 -6.68359375 1.8128125 -6.68359375 1.1328125 C-4.26292544 -0.07752165 -2.70192433 0.00358447 0 0 Z " fill="#787878" transform="translate(62.68359375,10.8671875)"/>
<path d="M0 0 C0.66 0 1.32 0 2 0 C2.67354499 1.43429001 3.33859701 2.87257057 4 4.3125 C4.556875 5.51326172 4.556875 5.51326172 5.125 6.73828125 C6 9 6 9 6 12 C4 12 4 12 1.5 9.5625 C0.675 8.716875 -0.15 7.87125 -1 7 C-1.66 6.67 -2.32 6.34 -3 6 C-2.71125 6.55429688 -2.4225 7.10859375 -2.125 7.6796875 C-1.568125 8.76636719 -1.568125 8.76636719 -1 9.875 C-0.62875 10.59429687 -0.2575 11.31359375 0.125 12.0546875 C1 14 1 14 1 16 C-0.32 15.67 -1.64 15.34 -3 15 C-3 15.99 -3 16.98 -3 18 C-6 17 -6 17 -7.16796875 15.22265625 C-7.50441406 14.50980469 -7.84085937 13.79695313 -8.1875 13.0625 C-8.53167969 12.35222656 -8.87585938 11.64195313 -9.23046875 10.91015625 C-10 9 -10 9 -10 7 C-8.68 7.33 -7.36 7.66 -6 8 C-6 7.01 -6 6.02 -6 5 C-5.34 5 -4.68 5 -4 5 C-4 4.34 -4 3.68 -4 3 C-2.68 3.33 -1.36 3.66 0 4 C0 2.68 0 1.36 0 0 Z " fill="#343434" transform="translate(92,87)"/>
<path d="M0 0 C2.875 -0.1875 2.875 -0.1875 6 0 C6.66 0.99 7.32 1.98 8 3 C8.99 2.67 9.98 2.34 11 2 C11.33 4.31 11.66 6.62 12 9 C9.17283905 9.94238698 7.36823877 10.13465647 4.4375 10.125 C3.25994141 10.12886719 3.25994141 10.12886719 2.05859375 10.1328125 C0 10 0 10 -2 9 C-1.125 2.25 -1.125 2.25 0 0 Z " fill="#212121" transform="translate(64,68)"/>
<path d="M0 0 C2.9534242 1.93740643 3.30357191 3.25631657 4.12890625 6.64453125 C4.36222656 7.55460937 4.59554687 8.4646875 4.8359375 9.40234375 C4.99449219 10.10101563 5.15304688 10.7996875 5.31640625 11.51953125 C4.32640625 12.17953125 3.33640625 12.83953125 2.31640625 13.51953125 C1.98640625 12.52953125 1.65640625 11.53953125 1.31640625 10.51953125 C-0.33359375 10.51953125 -1.98359375 10.51953125 -3.68359375 10.51953125 C-3.35359375 8.53953125 -3.02359375 6.55953125 -2.68359375 4.51953125 C-4.66359375 6.82953125 -6.64359375 9.13953125 -8.68359375 11.51953125 C-10.00359375 10.85953125 -11.32359375 10.19953125 -12.68359375 9.51953125 C-11.50832161 5.99371483 -10.28331021 5.02360539 -7.43359375 2.70703125 C-6.28117187 1.73830078 -6.28117187 1.73830078 -5.10546875 0.75 C-2.68359375 -0.48046875 -2.68359375 -0.48046875 0 0 Z " fill="#1D1D1D" transform="translate(68.68359375,58.48046875)"/>
<path d="M0 0 C0.33 0 0.66 0 1 0 C4.01079999 16.18304996 0.77929807 29.27237029 -8 43 C-8.99 43.66 -9.98 44.32 -11 45 C-11 40.76151897 -8.88505022 38.43940996 -6.60546875 34.9609375 C-2.41720746 27.2366016 -1.4094359 19.61771472 -0.8125 10.9375 C-0.73064453 9.88111328 -0.64878906 8.82472656 -0.56445312 7.73632812 C-0.36613074 5.15813718 -0.1782045 2.57964609 0 0 Z " fill="#222222" transform="translate(121,53)"/>
<path d="M0 0 C0 1.65 0 3.3 0 5 C-0.66 5 -1.32 5 -2 5 C-2 4.01 -2 3.02 -2 2 C-2.99 2 -3.98 2 -5 2 C-5 2.99 -5 3.98 -5 5 C-5.66 5 -6.32 5 -7 5 C-7 4.34 -7 3.68 -7 3 C-7.99 3.495 -7.99 3.495 -9 4 C-9.33 5.32 -9.66 6.64 -10 8 C-6.7 8.33 -3.4 8.66 0 9 C0 9.99 0 10.98 0 12 C-3.87684087 13.19287411 -6.91621923 14 -11 14 C-11 13.34 -11 12.68 -11 12 C-10.34 12 -9.68 12 -9 12 C-9 11.34 -9 10.68 -9 10 C-9.99 10 -10.98 10 -12 10 C-12 7.03 -12 4.06 -12 1 C-7.95858806 0.36605303 -4.0934693 -0.12404452 0 0 Z " fill="#424242" transform="translate(114,52)"/>
<path d="M0 0 C2.125 0.375 2.125 0.375 4 1 C4 1.99 4 2.98 4 4 C3.34 4 2.68 4 2 4 C2 3.34 2 2.68 2 2 C1.34 2 0.68 2 0 2 C1.37691962 4.75383923 3.36720042 5.51483101 6 7 C5.67 8.98 5.34 10.96 5 13 C3.88625 12.9690625 3.88625 12.9690625 2.75 12.9375 C0.28159657 12.99360008 -1.63864164 13.35920404 -4 14 C-4.50833591 12.75336669 -5.00631145 11.50250613 -5.5 10.25 C-5.7784375 9.55390625 -6.056875 8.8578125 -6.34375 8.140625 C-7 6 -7 6 -7 2 C-6.01 2.33 -5.02 2.66 -4 3 C-2.8125 6.0625 -2.8125 6.0625 -2 9 C-0.68 9 0.64 9 2 9 C2 9.66 2 10.32 2 11 C2.66 11 3.32 11 4 11 C2.27773504 7.75150023 2.27773504 7.75150023 -1 7 C-1.625 4.625 -1.625 4.625 -2 2 C-1.34 1.34 -0.68 0.68 0 0 Z " fill="#323232" transform="translate(60,17)"/>
<path d="M0 0 C0.99 0 1.98 0 3 0 C3.33 1.65 3.66 3.3 4 5 C4.33 3.68 4.66 2.36 5 1 C5.99 1 6.98 1 8 1 C8 4.96 8 8.92 8 13 C2 13 2 13 -1 12 C-0.67 8.04 -0.34 4.08 0 0 Z " fill="#393939" transform="translate(59,96)"/>
<path d="M0 0 C0.66 0.66 1.32 1.32 2 2 C1.67 2.66 1.34 3.32 1 4 C0.2769165 3.83773926 -0.44616699 3.67547852 -1.19116211 3.50830078 C-3.84786122 3.02753176 -6.24701418 2.87085726 -8.94140625 2.8671875 C-9.85470703 2.86589844 -10.76800781 2.86460938 -11.70898438 2.86328125 C-12.65064453 2.86714844 -13.59230469 2.87101563 -14.5625 2.875 C-15.50802734 2.87113281 -16.45355469 2.86726562 -17.42773438 2.86328125 C-18.33974609 2.86457031 -19.25175781 2.86585937 -20.19140625 2.8671875 C-21.43192749 2.86887939 -21.43192749 2.86887939 -22.69750977 2.87060547 C-24.92595142 2.99583864 -26.86105211 3.38114624 -29 4 C-29.33 3.01 -29.66 2.02 -30 1 C-20.03358045 -1.65771188 -10.16515252 -1.63954073 0 0 Z " fill="#363636" transform="translate(83,9)"/>
<path d="M0 0 C3.46265264 0.3147866 5.58585959 0.70266842 8.4375 2.75 C10 5 10 5 9.75 7.75 C9.5025 8.4925 9.255 9.235 9 10 C6.8125 10.3125 6.8125 10.3125 4 10 C1.125 7.8125 1.125 7.8125 -1 5 C-0.8125 2.1875 -0.8125 2.1875 0 0 Z " fill="#282828" transform="translate(32,35)"/>
<path d="M0 0 C1.32 0.33 2.64 0.66 4 1 C5.25677888 3.97056826 4.9757649 5.06866612 3.875 8.1875 C2 11 2 11 -0.6875 11.875 C-1.450625 11.91625 -2.21375 11.9575 -3 12 C-3.94721072 9.39517051 -4.30222393 7.69325299 -3.17578125 5.109375 C-2.17063275 3.37417127 -1.0893855 1.68359577 0 0 Z " fill="#2D2D2D" transform="translate(53,94)"/>
<path d="M0 0 C-1.53107085 3.0621417 -4.50962676 3.75502415 -7.5 5.125 C-13.93518659 8.18126091 -18.9820152 11.88908956 -24 17 C-24.99 16.34 -25.98 15.68 -27 15 C-10.92822839 -0.29535752 -10.92822839 -0.29535752 0 0 Z " fill="#272727" transform="translate(55,11)"/>
<path d="M0 0 C0.66 0 1.32 0 2 0 C2.12375 0.515625 2.2475 1.03125 2.375 1.5625 C2.8860444 3.55557315 3.46481993 5.53117155 4.0625 7.5 C5 11 5 11 5 15 C3.68 15.33 2.36 15.66 1 16 C-1.98514628 11.89542386 -2.2954439 9.02254631 -2 4 C-1.34 4 -0.68 4 0 4 C0 2.68 0 1.36 0 0 Z " fill="#424242" transform="translate(47,58)"/>
<path d="M0 0 C3.42198823 1.76284242 4.38774635 4.65318007 6.0625 8.0625 C6.0625 8.7225 6.0625 9.3825 6.0625 10.0625 C5.0725 9.7325 4.0825 9.4025 3.0625 9.0625 C3.0625 8.4025 3.0625 7.7425 3.0625 7.0625 C2.4025 7.0625 1.7425 7.0625 1.0625 7.0625 C1.7225 8.7125 2.3825 10.3625 3.0625 12.0625 C2.0725 12.0625 1.0825 12.0625 0.0625 12.0625 C-1.5875 8.7625 -3.2375 5.4625 -4.9375 2.0625 C-1.9375 0.0625 -1.9375 0.0625 0 0 Z " fill="#242424" transform="translate(48.9375,21.9375)"/>
<path d="M0 0 C0.33 1.98 0.66 3.96 1 6 C-0.26691507 6.67408308 -1.53870749 7.33900497 -2.8125 8 C-3.52019531 8.37125 -4.22789063 8.7425 -4.95703125 9.125 C-7 10 -7 10 -10 10 C-10 9.34 -10 8.68 -10 8 C-8.68 7.67 -7.36 7.34 -6 7 C-6 6.34 -6 5.68 -6 5 C-7.65 5.33 -9.3 5.66 -11 6 C-11 5.34 -11 4.68 -11 4 C-9.73308493 3.32591692 -8.46129251 2.66099503 -7.1875 2 C-6.47980469 1.62875 -5.77210937 1.2575 -5.04296875 0.875 C-3 0 -3 0 0 0 Z " fill="#222222" transform="translate(110,42)"/>
<path d="M0 0 C0.66 0 1.32 0 2 0 C2.33 1.32 2.66 2.64 3 4 C3.33 3.01 3.66 2.02 4 1 C4.66 1 5.32 1 6 1 C5.25749403 5.08378283 4.17076699 9.01939223 3 13 C2.01 13 1.02 13 0 13 C-0.33 11.68 -0.66 10.36 -1 9 C-1.33 9.66 -1.66 10.32 -2 11 C-2.66 11 -3.32 11 -4 11 C-3.5247412 9.35303396 -3.04468109 7.70745272 -2.5625 6.0625 C-2.29566406 5.14597656 -2.02882813 4.22945312 -1.75390625 3.28515625 C-1 1 -1 1 0 0 Z " fill="#161616" transform="translate(83,20)"/>
<path d="M0 0 C0 0.66 0 1.32 0 2 C-1.65 2.33 -3.3 2.66 -5 3 C-3.35 3.33 -1.7 3.66 0 4 C0 4.66 0 5.32 0 6 C-1.26839526 6.50615298 -2.53983102 7.00469099 -3.8125 7.5 C-4.87404297 7.91765625 -4.87404297 7.91765625 -5.95703125 8.34375 C-8 9 -8 9 -11 9 C-11 8.01 -11 7.02 -11 6 C-9.68 6 -8.36 6 -7 6 C-7 5.34 -7 4.68 -7 4 C-8.65 4.33 -10.3 4.66 -12 5 C-11 2 -11 2 -8.8125 0.8125 C-5.74609689 -0.07334979 -3.17561845 -0.14770318 0 0 Z " fill="#222222" transform="translate(37,70)"/>
<path d="M0 0 C2.31 0 4.62 0 7 0 C6.67 3.96 6.34 7.92 6 12 C5.34 12 4.68 12 4 12 C4 10.35 4 8.7 4 7 C3.34 7 2.68 7 2 7 C2 8.65 2 10.3 2 12 C1.34 12 0.68 12 0 12 C0 8.04 0 4.08 0 0 Z " fill="#2E2E2E" transform="translate(68,17)"/>
<path d="M0 0 C3.8307575 0.68472477 6.76774414 2.45772376 10.125 4.375 C15.63057943 7.40462393 20.89387177 9.55272356 27 11 C27 11.33 27 11.66 27 12 C16.80765684 12.74126132 8.91624662 8.18456767 1 2 C0.67 1.34 0.34 0.68 0 0 Z " fill="#262626" transform="translate(34,104)"/>
<path d="M0 0 C2 0 2 0 3.33203125 1.26953125 C3.88246094 1.84058594 4.43289062 2.41164062 5 3 C6.54742298 4.24809418 8.11089196 5.47648223 9.6875 6.6875 C10.49574219 7.31011719 11.30398437 7.93273438 12.13671875 8.57421875 C12.75160156 9.04472656 13.36648437 9.51523438 14 10 C13.34 11.32 12.68 12.64 12 14 C7.66555582 12.22128641 6.00599602 9.46782431 3.46484375 5.6796875 C2.98144531 5.12539063 2.49804688 4.57109375 2 4 C1.01 4 0.02 4 -1 4 C-0.67 2.68 -0.34 1.36 0 0 Z " fill="#1C1C1C" transform="translate(68,56)"/>
<path d="M0 0 C5.59840222 6.35203329 9.327815 15.3139169 9.3125 23.875 C9.1578125 25.421875 9.1578125 25.421875 9 27 C5.94883267 23.58477294 5.01184492 19.98107812 4 15.625 C3.08949315 11.75148781 2.11545092 8.22929836 0.3125 4.6484375 C-0.120625 3.77445313 -0.55375 2.90046875 -1 2 C-0.67 1.34 -0.34 0.68 0 0 Z " fill="#2D2D2D" transform="translate(114,33)"/>
<path d="M0 0 C0.99 0 1.98 0 3 0 C3.67408308 1.26691507 4.33900497 2.53870749 5 3.8125 C5.556875 4.87404297 5.556875 4.87404297 6.125 5.95703125 C7 8 7 8 7 11 C6.01 10.67 5.02 10.34 4 10 C3.67 10.66 3.34 11.32 3 12 C2.01 12 1.02 12 0 12 C0 8.04 0 4.08 0 0 Z " fill="#3D3D3D" transform="translate(77,96)"/>
<path d="M0 0 C3.79235994 1.48985569 5.80565887 3.58658047 8 7 C7.75 9.3125 7.75 9.3125 7 11 C5.68 11.33 4.36 11.66 3 12 C1.99406757 10.8803014 0.9954151 9.7540588 0 8.625 C-0.556875 7.99851562 -1.11375 7.37203125 -1.6875 6.7265625 C-3 5 -3 5 -3 3 C0.81684226 4.55500981 3.19195732 7.03595495 6 10 C5.566875 9.44570313 5.13375 8.89140625 4.6875 8.3203125 C3.8521875 7.23363281 3.8521875 7.23363281 3 6.125 C2.1646875 5.04605469 2.1646875 5.04605469 1.3125 3.9453125 C0 2 0 2 0 0 Z " fill="#202020" transform="translate(40,27)"/>
<path d="M0 0 C1.40185547 0.00966797 1.40185547 0.00966797 2.83203125 0.01953125 C4.28416016 0.04466797 4.28416016 0.04466797 5.765625 0.0703125 C6.74917969 0.07933594 7.73273438 0.08835937 8.74609375 0.09765625 C11.16951907 0.12118465 13.59244722 0.15405882 16.015625 0.1953125 C11.46078519 3.23187238 8.01305296 3.33287881 2.578125 3.3203125 C1.46566406 3.32289062 0.35320312 3.32546875 -0.79296875 3.328125 C-3.64814992 3.20930473 -6.20945446 2.84884519 -8.984375 2.1953125 C-5.85508322 0.36461347 -3.60794354 -0.04399931 0 0 Z " fill="#393939" transform="translate(65.984375,114.8046875)"/>
<path d="M0 0 C1.66666667 0 3.33333333 0 5 0 C5 2.31 5 4.62 5 7 C3.35 7.33 1.7 7.66 0 8 C0.99 8.33 1.98 8.66 3 9 C2.67 9.99 2.34 10.98 2 12 C0.68 11.67 -0.64 11.34 -2 11 C-1.125 3.375 -1.125 3.375 0 0 Z " fill="#4A4A4A" transform="translate(88,62)"/>
<path d="M0 0 C1.65 0.33 3.3 0.66 5 1 C4.67 2.65 4.34 4.3 4 6 C3.34 5.34 2.68 4.68 2 4 C2.33 3.34 2.66 2.68 3 2 C-0.78034623 5.47736026 -0.78034623 5.47736026 -3 10 C-2.34 9.67 -1.68 9.34 -1 9 C-0.67 8.01 -0.34 7.02 0 6 C0.99 6.33 1.98 6.66 3 7 C1.515 9.475 1.515 9.475 0 12 C-2.475 11.01 -2.475 11.01 -5 10 C-4.49701212 5.59885603 -2.91227269 3.28804981 0 0 Z " fill="#252525" transform="translate(92,25)"/>
<path d="M0 0 C1.32 0.66 2.64 1.32 4 2 C2.40768051 6.29926263 -0.39313359 8.35005733 -4 11 C-4.99 11 -5.98 11 -7 11 C-6.40716379 7.60807637 -5.23256811 5.7892243 -2.9375 3.25 C-2.38964844 2.63640625 -1.84179688 2.0228125 -1.27734375 1.390625 C-0.85582031 0.93171875 -0.43429688 0.4728125 0 0 Z " fill="#1F1F1F" transform="translate(78,44)"/>
<path d="M0 0 C1.66611905 -0.042721 3.33382885 -0.04063832 5 0 C6 1 6 1 6.0625 4.0625 C6.041875 5.031875 6.02125 6.00125 6 7 C5.01 7 4.02 7 3 7 C3 8.65 3 10.3 3 12 C2.34 12 1.68 12 1 12 C0.01751476 7.9472484 -0.08159574 4.16138263 0 0 Z " fill="#363636" transform="translate(69,97)"/>
<path d="M0 0 C2.0625 0.4375 2.0625 0.4375 4 1 C4 1.66 4 2.32 4 3 C3.01 3.33 2.02 3.66 1 4 C5.455 3.505 5.455 3.505 10 3 C10.33 4.32 10.66 5.64 11 7 C10.34 7.66 9.68 8.32 9 9 C8.01 9 7.02 9 6 9 C6 8.34 6 7.68 6 7 C6.99 7 7.98 7 9 7 C9 6.34 9 5.68 9 5 C8.443125 5.33 7.88625 5.66 7.3125 6 C4.67598842 7.14011312 2.84445144 7.2306312 0 7 C-1 6 -1 6 -1.125 3.5 C-1 1 -1 1 0 0 Z " fill="#262626" transform="translate(101,73)"/>
<path d="M0 0 C1.65 0.33 3.3 0.66 5 1 C4.67 2.65 4.34 4.3 4 6 C3.67 4.68 3.34 3.36 3 2 C2.34 2 1.68 2 1 2 C0.5359375 2.928125 0.5359375 2.928125 0.0625 3.875 C-0.625 5.25 -1.3125 6.625 -2 8 C-1.34 8.33 -0.68 8.66 0 9 C0 8.34 0 7.68 0 7 C0.66 7 1.32 7 2 7 C1.67 8.32 1.34 9.64 1 11 C-0.65 10.67 -2.3 10.34 -4 10 C-4.33 9.01 -4.66 8.02 -5 7 C-4.00390625 5.17578125 -4.00390625 5.17578125 -2.5625 3.3125 C-2.08941406 2.68988281 -1.61632813 2.06726563 -1.12890625 1.42578125 C-0.75636719 0.95527344 -0.38382813 0.48476562 0 0 Z " fill="#2A2A2A" transform="translate(46,91)"/>
<path d="M0 0 C1.32 0 2.64 0 4 0 C5.625 2.75 5.625 2.75 7 6 C6.1875 8.375 6.1875 8.375 5 10 C4.34 9.01 3.68 8.02 3 7 C0.41619823 6.74969023 0.41619823 6.74969023 -2 7 C-1.125 2.25 -1.125 2.25 0 0 Z " fill="#191919" transform="translate(67,62)"/>
<path d="M0 0 C0.66 0 1.32 0 2 0 C2 0.99 2 1.98 2 3 C3.65 2.67 5.3 2.34 7 2 C7 2.99 7 3.98 7 5 C8.32 5 9.64 5 11 5 C11 5.99 11 6.98 11 8 C7.37 7.34 3.74 6.68 0 6 C-1 3 -1 3 0 0 Z " fill="#323232" transform="translate(25,50)"/>
<path d="M0 0 C2.125 0.375 2.125 0.375 4 1 C4 1.99 4 2.98 4 4 C3.34 4 2.68 4 2 4 C2 3.34 2 2.68 2 2 C1.34 2 0.68 2 0 2 C1.37691962 4.75383923 3.36720042 5.51483101 6 7 C5.67 8.65 5.34 10.3 5 12 C4.566875 11.360625 4.13375 10.72125 3.6875 10.0625 C2.08760823 7.73253997 2.08760823 7.73253997 -1 7 C-1.625 4.625 -1.625 4.625 -2 2 C-1.34 1.34 -0.68 0.68 0 0 Z " fill="#2F2F2F" transform="translate(60,17)"/>
<path d="M0 0 C0.66 0 1.32 0 2 0 C2.67354499 1.43429001 3.33859701 2.87257057 4 4.3125 C4.556875 5.51326172 4.556875 5.51326172 5.125 6.73828125 C6 9 6 9 6 12 C4 12 4 12 1.5 9.75 C-0.56954228 7.4735035 -1.85749293 5.80433554 -3 3 C-2.01 3 -1.02 3 0 3 C0 2.01 0 1.02 0 0 Z " fill="#2F2F2F" transform="translate(92,87)"/>
<path d="M0 0 C0.99 0 1.98 0 3 0 C3.33 4.29 3.66 8.58 4 13 C2.35 12.67 0.7 12.34 -1 12 C-0.67 8.04 -0.34 4.08 0 0 Z " fill="#1D1D1D" transform="translate(59,96)"/>
<path d="M0 0 C3.96 0 7.92 0 12 0 C12 1.65 12 3.3 12 5 C11.01 5.33 10.02 5.66 9 6 C9 5.34 9 4.68 9 4 C6.03 3.67 3.06 3.34 0 3 C0 2.01 0 1.02 0 0 Z " fill="#333333" transform="translate(102,68)"/>
<path d="M0 0 C2 2 2 2 2 6 C-3.94 6.495 -3.94 6.495 -10 7 C-10 5.35 -10 3.7 -10 2 C-9.67 2.66 -9.34 3.32 -9 4 C-8.01 4 -7.02 4 -6 4 C-6 3.34 -6 2.68 -6 2 C-5.34 2 -4.68 2 -4 2 C-4 2.66 -4 3.32 -4 4 C-2.68 4 -1.36 4 0 4 C0 2.68 0 1.36 0 0 Z " fill="#202020" transform="translate(34,62)"/>
<path d="M0 0 C0.99 0.33 1.98 0.66 3 1 C4.1875 3.5625 4.1875 3.5625 5 6 C4.0925 6.103125 3.185 6.20625 2.25 6.3125 C-1.05815035 7.01230104 -2.4463282 7.90234102 -5 10 C-5.66 10 -6.32 10 -7 10 C-5.5834979 6.5767866 -3.93172851 5.17515341 -1 3 C-0.67 2.01 -0.34 1.02 0 0 Z " fill="#2D2D2D" transform="translate(103,34)"/>
<path d="M0 0 C0 0.66 0 1.32 0 2 C-1.79036458 2.94401042 -3.58072917 3.88802083 -5.37109375 4.83203125 C-7.32267987 5.99019799 -7.32267987 5.99019799 -8 9 C-8.66 9 -9.32 9 -10 9 C-10.66 7.02 -11.32 5.04 -12 3 C-10.88625 2.814375 -10.88625 2.814375 -9.75 2.625 C-7.03427622 2.12244458 -7.03427622 2.12244458 -4.875 0.9375 C-3 0 -3 0 0 0 Z " fill="#272727" transform="translate(40,79)"/>
<path d="M0 0 C0 1.65 0 3.3 0 5 C-0.66 5 -1.32 5 -2 5 C-2 4.01 -2 3.02 -2 2 C-2.99 2 -3.98 2 -5 2 C-5 2.99 -5 3.98 -5 5 C-5.66 5 -6.32 5 -7 5 C-7 4.34 -7 3.68 -7 3 C-8.32 3 -9.64 3 -11 3 C-11.33 3.66 -11.66 4.32 -12 5 C-12 3.68 -12 2.36 -12 1 C-7.95858806 0.36605303 -4.0934693 -0.12404452 0 0 Z " fill="#202020" transform="translate(114,52)"/>
<path d="M0 0 C4.07118515 3.72222642 7.84924501 7.84842971 10 13 C9.6328125 15.24609375 9.6328125 15.24609375 9 17 C8.74605469 16.44570313 8.49210937 15.89140625 8.23046875 15.3203125 C7.88628906 14.59585938 7.54210937 13.87140625 7.1875 13.125 C6.85105469 12.40570313 6.51460938 11.68640625 6.16796875 10.9453125 C5.00532903 8.69457194 5.00532903 8.69457194 2 7 C0.8125 3.375 0.8125 3.375 0 0 Z " fill="#C4C4C4" transform="translate(107,28)"/>
<path d="M0 0 C0.66 0 1.32 0 2 0 C2 0.66 2 1.32 2 2 C2.99 2 3.98 2 5 2 C4.67 2.99 4.34 3.98 4 5 C3.34 5 2.68 5 2 5 C1.67 5.99 1.34 6.98 1 8 C0.01 8 -0.98 8 -2 8 C-2.33 6.35 -2.66 4.7 -3 3 C-2.34 3 -1.68 3 -1 3 C-1 3.66 -1 4.32 -1 5 C-0.34 5 0.32 5 1 5 C0.67 3.35 0.34 1.7 0 0 Z " fill="#363636" transform="translate(84,73)"/>
<path d="M0 0 C0.66 0 1.32 0 2 0 C1.67 1.65 1.34 3.3 1 5 C1.66 5 2.32 5 3 5 C3 4.34 3 3.68 3 3 C3.66 3 4.32 3 5 3 C4.67 4.65 4.34 6.3 4 8 C2.68 7.67 1.36 7.34 0 7 C0 6.34 0 5.68 0 5 C-0.99 4.67 -1.98 4.34 -3 4 C-3 3.34 -3 2.68 -3 2 C-2.01 2 -1.02 2 0 2 C0 1.34 0 0.68 0 0 Z " fill="#343434" transform="translate(52,73)"/>
<path d="M0 0 C4.05606165 0.46800711 7.46588679 0.87953208 11 3 C11 2.34 11 1.68 11 1 C11.66 1.33 12.32 1.66 13 2 C12.34 3.32 11.68 4.64 11 6 C7.37 4.68 3.74 3.36 0 2 C0 1.34 0 0.68 0 0 Z " fill="#232323" transform="translate(26,46)"/>
<path d="M0 0 C0.80244141 0.04833984 1.60488281 0.09667969 2.43164062 0.14648438 C3.68170898 0.2305957 3.68170898 0.2305957 4.95703125 0.31640625 C6.22450195 0.3947168 6.22450195 0.3947168 7.51757812 0.47460938 C9.60189424 0.60414314 11.68576307 0.74083802 13.76953125 0.87890625 C13.76953125 1.20890625 13.76953125 1.53890625 13.76953125 1.87890625 C12.6609375 1.93949219 11.55234375 2.00007812 10.41015625 2.0625 C8.94660305 2.14693576 7.483062 2.23158224 6.01953125 2.31640625 C4.92511719 2.37538086 4.92511719 2.37538086 3.80859375 2.43554688 C0.34223395 2.64037723 -2.88379901 2.96410645 -6.23046875 3.87890625 C-6.56046875 2.88890625 -6.89046875 1.89890625 -7.23046875 0.87890625 C-4.35516794 -0.07952735 -2.93996944 -0.18765762 0 0 Z " fill="#4F4F4F" transform="translate(60.23046875,9.12109375)"/>
<path d="M0 0 C5.11365014 1.0681847 10.07227969 2.23107476 15 4 C15 4.33 15 4.66 15 5 C8.53673535 5.45356243 5.39068413 4.59378942 0 1 C0 0.67 0 0.34 0 0 Z " fill="#1E1E1E" transform="translate(46,111)"/>
<path d="M0 0 C0.66 0.33 1.32 0.66 2 1 C2 1.99 2 2.98 2 4 C-0.82716095 4.94238698 -2.63176123 5.13465647 -5.5625 5.125 C-6.74005859 5.12886719 -6.74005859 5.12886719 -7.94140625 5.1328125 C-10 5 -10 5 -12 4 C-11.67 3.34 -11.34 2.68 -11 2 C-7.37 2 -3.74 2 0 2 C0 1.34 0 0.68 0 0 Z " fill="#1C1C1C" transform="translate(74,73)"/>
<path d="M0 0 C1.67542976 0.28604898 3.34385343 0.61781233 5 1 C4.67 2.32 4.34 3.64 4 5 C2.68 5 1.36 5 0 5 C-0.5625 3.0625 -0.5625 3.0625 -1 1 C-0.67 0.67 -0.34 0.34 0 0 Z " fill="#242424" transform="translate(37,87)"/>
<path d="M0 0 C-0.99 0.495 -0.99 0.495 -2 1 C-2 1.66 -2 2.32 -2 3 C-3.2375 3.28875 -4.475 3.5775 -5.75 3.875 C-8.72448742 4.61334794 -11.333856 5.44474933 -14 7 C-14.33 6.34 -14.66 5.68 -15 5 C-13.44424022 4.15415002 -11.8800388 3.32381601 -10.3125 2.5 C-9.44238281 2.0359375 -8.57226562 1.571875 -7.67578125 1.09375 C-4.88211171 -0.04818792 -2.98370887 -0.21504208 0 0 Z " fill="#C3C3C3" transform="translate(56,13)"/>
<path d="M0 0 C3.7952131 1.49097658 5.61042731 3.75700849 8 7 C7.01 7.33 6.02 7.66 5 8 C2.5 5.6875 2.5 5.6875 0 3 C0 2.01 0 1.02 0 0 Z " fill="#373737" transform="translate(28,97)"/>
<path d="M0 0 C2.74782689 5.31246532 3.09669018 9.10189908 3 15 C-0.55431314 11.29115151 -0.68558455 7.95204332 -1 3 C-0.67 2.01 -0.34 1.02 0 0 Z " fill="#464646" transform="translate(120,45)"/>
<path d="M0 0 C0.68835938 0.50660156 0.68835938 0.50660156 1.390625 1.0234375 C5.98192426 4.36308951 5.98192426 4.36308951 11 7 C10 8 10 8 7.75 8.375 C3.83150056 7.84065917 2.44357746 6.00210945 0 3 C0 2.01 0 1.02 0 0 Z " fill="#1C1C1C" transform="translate(31,37)"/>
<path d="M0 0 C0.33 0.66 0.66 1.32 1 2 C1.66 2 2.32 2 3 2 C3.144375 2.94875 3.28875 3.8975 3.4375 4.875 C3.82935399 7.8934494 3.82935399 7.8934494 5 10 C4.01 10 3.02 10 2 10 C1.67 8.68 1.34 7.36 1 6 C0.67 6.66 0.34 7.32 0 8 C-0.66 8 -1.32 8 -2 8 C-1.34 5.36 -0.68 2.72 0 0 Z " fill="#494949" transform="translate(81,23)"/>
<path d="M0 0 C0.66 0 1.32 0 2 0 C1.34 3.96 0.68 7.92 0 12 C-0.66 12 -1.32 12 -2 12 C-1.85904936 10.3745692 -1.71207913 8.74965949 -1.5625 7.125 C-1.48128906 6.22007813 -1.40007812 5.31515625 -1.31640625 4.3828125 C-1 2 -1 2 0 0 Z " fill="#222222" transform="translate(78,18)"/>
<path d="M0 0 C2.6875 0.875 2.6875 0.875 5 2 C5 2.66 5 3.32 5 4 C2.36 4.33 -0.28 4.66 -3 5 C-3 4.01 -3 3.02 -3 2 C-2.01 1.34 -1.02 0.68 0 0 Z " fill="#6F6F6F" transform="translate(66,58)"/>
<path d="M0 0 C2.125 0.375 2.125 0.375 4 1 C2.1875 3.5 2.1875 3.5 0 6 C-0.99 6 -1.98 6 -3 6 C-2.42655063 3.13275314 -2.1385485 2.1385485 0 0 Z " fill="#191919" transform="translate(74,49)"/>
<path d="M0 0 C0.66 0.66 1.32 1.32 2 2 C1.67342446 5.75561867 0.8830622 8.73602552 -1 12 C-2.36884358 7.48281619 -1.47075246 4.41225737 0 0 Z " fill="#3C3C3C" transform="translate(17,45)"/>
<path d="M0 0 C0.2475 0.639375 0.495 1.27875 0.75 1.9375 C1.79688294 4.19895007 1.79688294 4.19895007 4.0625 4.5625 C5.0215625 4.7790625 5.0215625 4.7790625 6 5 C6.33 5.99 6.66 6.98 7 8 C6.34 8 5.68 8 5 8 C5 7.34 5 6.68 5 6 C4.01 6 3.02 6 2 6 C1.67 6.66 1.34 7.32 1 8 C0.34 5.69 -0.32 3.38 -1 1 C-0.67 0.67 -0.34 0.34 0 0 Z " fill="#E3E3E3" transform="translate(57,20)"/>
<path d="M0 0 C0.33 0 0.66 0 1 0 C0.67 3.63 0.34 7.26 0 11 C-0.66 10.34 -1.32 9.68 -2 9 C-4.10820797 9.3185177 -4.10820797 9.3185177 -6 10 C-5.38125 9.278125 -4.7625 8.55625 -4.125 7.8125 C-2.16333647 5.21618062 -1.04684 3.05328334 0 0 Z " fill="#C5C5C5" transform="translate(58,97)"/>
<path d="M0 0 C0.66 0.33 1.32 0.66 2 1 C1.5205537 5.21912747 0.83374881 7.79663178 -2 11 C-2.99 10.67 -3.98 10.34 -5 10 C-4.34 10 -3.68 10 -3 10 C-2.01 6.7 -1.02 3.4 0 0 Z " fill="#181818" transform="translate(56,95)"/>
<path d="M0 0 C-1.07401108 2.91517292 -1.77810176 4.77810176 -4 7 C-6.125 6.625 -6.125 6.625 -8 6 C-7.0479279 4.99403703 -6.08812654 3.99538437 -5.125 3 C-4.59132813 2.443125 -4.05765625 1.88625 -3.5078125 1.3125 C-2 0 -2 0 0 0 Z " fill="#2F2F2F" transform="translate(110,97)"/>
<path d="M0 0 C1.65 0 3.3 0 5 0 C5 1.65 5 3.3 5 5 C3.35 4.67 1.7 4.34 0 4 C0 2.68 0 1.36 0 0 Z " fill="#191919" transform="translate(98,85)"/>
<path d="M0 0 C0.66 0 1.32 0 2 0 C2.66666667 2.66666667 3.33333333 5.33333333 4 8 C3.34 8 2.68 8 2 8 C2 8.66 2 9.32 2 10 C1.34 10 0.68 10 0 10 C0 6.7 0 3.4 0 0 Z " fill="#5F5F5F" transform="translate(47,58)"/>
<path d="M0 0 C0.33 0.66 0.66 1.32 1 2 C1.66 2.33 2.32 2.66 3 3 C2.01 5.64 1.02 8.28 0 11 C-0.66 11 -1.32 11 -2 11 C-1.125 3.375 -1.125 3.375 0 0 Z " fill="#D8D8D8" transform="translate(80,18)"/>
<path d="M0 0 C0.33 0 0.66 0 1 0 C1.36923077 6.4 1.36923077 6.4 -0.5 9.4375 C-0.995 9.953125 -1.49 10.46875 -2 11 C-2.95465783 8.83032311 -3.14401212 7.43671207 -2.3984375 5.17578125 C-1.64129615 3.4315257 -0.82390802 1.71372869 0 0 Z " fill="#2B2B2B" transform="translate(120,74)"/>
<path d="M0 0 C0.66 0.33 1.32 0.66 2 1 C2.40729228 3.32156597 2.74438677 5.6568787 3 8 C2.01 8.66 1.02 9.32 0 10 C-1.2380014 6.42355152 -0.74926071 3.66305234 0 0 Z " fill="#707070" transform="translate(90,52)"/>
<path d="M0 0 C0 0.66 0 1.32 0 2 C-0.804375 2.12375 -1.60875 2.2475 -2.4375 2.375 C-3.7059375 2.684375 -3.7059375 2.684375 -5 3 C-5.33 3.66 -5.66 4.32 -6 5 C-6.99 3.68 -7.98 2.36 -9 1 C-5.8035914 -0.06546953 -3.34252724 -0.07427838 0 0 Z " fill="#474747" transform="translate(37,70)"/>
<path d="M0 0 C0.99 0.33 1.98 0.66 3 1 C3 2.65 3 4.3 3 6 C1.68 6 0.36 6 -1 6 C-1.042721 4.33388095 -1.04063832 2.66617115 -1 1 C-0.67 0.67 -0.34 0.34 0 0 Z " fill="#C8C8C8" transform="translate(68,68)"/>
<path d="M0 0 C1.66666667 0 3.33333333 0 5 0 C4.67 1.32 4.34 2.64 4 4 C3.01 4 2.02 4 1 4 C0.67 4.99 0.34 5.98 0 7 C-0.93423645 3.98968256 -1.04449911 3.13349732 0 0 Z " fill="#343434" transform="translate(88,62)"/>
<path d="M0 0 C0.33 0.66 0.66 1.32 1 2 C3.64 1.34 6.28 0.68 9 0 C9 0.66 9 1.32 9 2 C5.12315913 3.19287411 2.08378077 4 -2 4 C-2 3.34 -2 2.68 -2 2 C-1.34 2 -0.68 2 0 2 C0 1.34 0 0.68 0 0 Z " fill="#101010" transform="translate(105,62)"/>
<path d="M0 0 C3.34905453 3.34905453 3.89470285 5.49378854 5 10 C3.66666667 10 2.33333333 10 1 10 C0.67 6.7 0.34 3.4 0 0 Z " fill="#9D9D9D" transform="translate(86,54)"/>
<path d="M0 0 C1.65 0 3.3 0 5 0 C5 0.99 5 1.98 5 3 C3.35 3.66 1.7 4.32 0 5 C-0.33 4.01 -0.66 3.02 -1 2 C-0.67 1.34 -0.34 0.68 0 0 Z " fill="#8E8E8E" transform="translate(47,51)"/>
<path d="M0 0 C0.598125 0.763125 1.19625 1.52625 1.8125 2.3125 C3.84004112 4.91335259 3.84004112 4.91335259 5.75 6.6875 C7 8 7 8 7 10 C3.28175844 8.76058615 2.32621255 7.0766037 0 4 C-0.66 3.34 -1.32 2.68 -2 2 C-1.34 2 -0.68 2 0 2 C0 1.34 0 0.68 0 0 Z " fill="#CCCCCC" transform="translate(39,27)"/>
<path d="M0 0 C0.33 0.99 0.66 1.98 1 3 C0.34 3.66 -0.32 4.32 -1 5 C-1.99 5 -2.98 5 -4 5 C-4.33 3.68 -4.66 2.36 -5 1 C-3 0 -3 0 0 0 Z " fill="#595959" transform="translate(110,42)"/>
<path d="M0 0 C3.34249629 0.59687434 5.46436342 1.73603877 8 4 C8 4.66 8 5.32 8 6 C5.0280615 4.87548273 2.66559313 3.77706209 0 2 C0 1.34 0 0.68 0 0 Z " fill="#D3D3D3" transform="translate(32,37)"/>
<path d="M0 0 C2 3 2 3 1.625 6.1875 C1.41875 7.115625 1.2125 8.04375 1 9 C0.34 8.67 -0.32 8.34 -1 8 C-1.625 4.9375 -1.625 4.9375 -2 2 C-1.34 2 -0.68 2 0 2 C0 1.34 0 0.68 0 0 Z " fill="#4D4D4D" transform="translate(88,90)"/>
<path d="M0 0 C0.66 0 1.32 0 2 0 C1.45276317 3.37462715 0.9451 5.08235 -1 8 C-1.66 8 -2.32 8 -3 8 C-1.125 2.25 -1.125 2.25 0 0 Z " fill="#DBDBDB" transform="translate(54,96)"/>
<path d="M0 0 C0.99 0 1.98 0 3 0 C3.33 1.32 3.66 2.64 4 4 C3.01 4.33 2.02 4.66 1 5 C0.67 5.66 0.34 6.32 0 7 C0 4.69 0 2.38 0 0 Z " fill="#2A2A2A" transform="translate(77,96)"/>
<path d="M0 0 C-1.44253657 3.36591866 -3.33264727 5.51047079 -6 8 C-5.62403791 5.21788056 -5.32681541 3.4120716 -3.5625 1.1875 C-2 0 -2 0 0 0 Z " fill="#1B1B1B" transform="translate(30,27)"/>
<path d="M0 0 C0.66 0 1.32 0 2 0 C2 0.66 2 1.32 2 2 C1.34 2 0.68 2 0 2 C-0.66 3.98 -1.32 5.96 -2 8 C-2.66 8 -3.32 8 -4 8 C-3.40312566 4.65750371 -2.26396123 2.53563658 0 0 Z " fill="#C5C5C5" transform="translate(93,27)"/>
<path d="M0 0 C0.99 0 1.98 0 3 0 C3 0.66 3 1.32 3 2 C3.99 2.33 4.98 2.66 6 3 C6 3.33 6 3.66 6 4 C4.824375 3.9690625 4.824375 3.9690625 3.625 3.9375 C1.01885039 3.81315937 1.01885039 3.81315937 -1 5 C-0.67 3.35 -0.34 1.7 0 0 Z " fill="#565656" transform="translate(59,26)"/>
<path d="M0 0 C2.1875 0.3125 2.1875 0.3125 4 1 C3.67 2.32 3.34 3.64 3 5 C1.02 4.34 -0.96 3.68 -3 3 C-1.75 1.4375 -1.75 1.4375 0 0 Z " fill="#5E5E5E" transform="translate(47,22)"/>
<path d="M0 0 C0.99 0.33 1.98 0.66 3 1 C1.35 2.65 -0.3 4.3 -2 6 C-2.66 5.34 -3.32 4.68 -4 4 C-2.68 2.68 -1.36 1.36 0 0 Z " fill="#3C3C3C" transform="translate(32,22)"/>
<path d="M0 0 C0.99 0.33 1.98 0.66 3 1 C0.31158141 3.25245881 -1.64641875 4.88213958 -5 6 C-3.63016497 2.83884224 -3.0109362 2.0072908 0 0 Z " fill="#1B1B1B" transform="translate(101,104)"/>
<path d="M0 0 C0.66 0 1.32 0 2 0 C2.66 1.98 3.32 3.96 4 6 C2.0625 5.6875 2.0625 5.6875 0 5 C-0.33 4.01 -0.66 3.02 -1 2 C-0.67 1.34 -0.34 0.68 0 0 Z " fill="#2C2C2C" transform="translate(89,97)"/>
<path d="M0 0 C0.66 0 1.32 0 2 0 C1.38722388 2.96175123 0.74627478 4.38058783 -1 7 C-1.99 6.67 -2.98 6.34 -4 6 C-2.7260411 3.96166576 -1.38938077 1.96147874 0 0 Z " fill="#D8D8D8" transform="translate(47,93)"/>
<path d="M0 0 C0.99 0.33 1.98 0.66 3 1 C2.67 2.32 2.34 3.64 2 5 C0.68 5.33 -0.64 5.66 -2 6 C-2 5.34 -2 4.68 -2 4 C-1.01 4 -0.02 4 1 4 C1 3.34 1 2.68 1 2 C0.01 1.67 -0.98 1.34 -2 1 C-1.34 0.67 -0.68 0.34 0 0 Z " fill="#2C2C2C" transform="translate(109,76)"/>
<path d="M0 0 C0.33 0.66 0.66 1.32 1 2 C1.99 2 2.98 2 4 2 C4.33 1.34 4.66 0.68 5 0 C4.67 1.65 4.34 3.3 4 5 C2.68 5 1.36 5 0 5 C0 3.35 0 1.7 0 0 Z " fill="#2D2D2D" transform="translate(24,64)"/>
<path d="M0 0 C3.16115776 1.36983503 3.9927092 1.9890638 6 5 C5.34 5.66 4.68 6.32 4 7 C0 2.25 0 2.25 0 0 Z " fill="#272727" transform="translate(40,27)"/>
<path d="M0 0 C1.04449911 3.13349732 0.93423645 3.98968256 0 7 C-0.99 6.67 -1.98 6.34 -3 6 C-2.625 3.5625 -2.625 3.5625 -2 1 C-1.34 0.67 -0.68 0.34 0 0 Z " fill="#A6A6A6" transform="translate(47,55)"/>
<path d="M0 0 C1.65 1.65 3.3 3.3 5 5 C4.67 5.99 4.34 6.98 4 8 C0 3.375 0 3.375 0 0 Z " fill="#1B1B1B" transform="translate(109,27)"/>
</svg>
